<?xml version="1.0" encoding="UTF-8" standalone="no"?>
<!-- Created with Inkscape (http://www.inkscape.org/) -->

<svg
   width="105.83335mm"
   height="31.750002mm"
   viewBox="0 0 105.83335 31.750002"
   version="1.1"
   id="svg1"
   xml:space="preserve"
   xmlns="http://www.w3.org/2000/svg"
   xmlns:svg="http://www.w3.org/2000/svg"><defs
     id="defs1" /><path
     style="-inkscape-font-specification:Handelson;stroke-width:0.152367"
     d="m 69.68392,23.552378 c 0.091,0 0.16903,-0.0715 0.18203,-0.17553 0.013,-0.10402 0.026,-0.19503 0.052,-0.29255 0.0195,-0.10401 0.0455,-0.20153 0.0715,-0.27954 0.065,-0.18853 0.0975,-0.27954 0.16902,-0.46807 0.039,-0.0845 0.0975,-0.22103 0.13652,-0.30555 0.0455,-0.091 0.091,-0.14302 0.22754,-0.14302 0.052,0 0.14952,0.007 0.21453,0.007 0.0195,0 0.0455,0 0.065,0 0.0195,0 0.0975,0 0.11702,0 0.039,0 0.0845,0 0.13652,0 0.0195,0 0.0455,0 0.0715,0.007 0.026,0 0.0585,0.007 0.091,0.007 0.0455,0 0.078,-0.007 0.11052,-0.0195 0.065,-0.0195 0.11052,-0.091 0.11052,-0.16252 0,-0.11052 -0.065,-0.18203 -0.26004,-0.19503 -0.078,-0.007 -0.18203,-0.013 -0.29255,-0.013 -0.0845,0 -0.21453,0.007 -0.27954,0.007 -0.0325,0 -0.0455,-0.0195 -0.0455,-0.039 0,-0.007 0,-0.0455 0.0585,-0.14952 0.013,-0.0325 0.11052,-0.20803 0.13652,-0.25354 0.013,-0.026 0.026,-0.0585 0.0455,-0.0845 0.026,-0.0585 0.065,-0.12352 0.0975,-0.18203 0.0585,-0.10402 0.13002,-0.22103 0.14302,-0.24704 0.0325,-0.0585 0.078,-0.11052 0.11051,-0.16902 0.065,-0.091 0.12352,-0.17553 0.17553,-0.25354 0.091,-0.13002 0.16903,-0.23404 0.21453,-0.28605 0.026,-0.0325 0.0715,-0.0845 0.12352,-0.13652 0.0585,-0.065 0.12352,-0.13002 0.16253,-0.15602 0.026,-0.013 0.065,-0.013 0.0845,-0.013 0.013,0 0.0325,0 0.052,0 0.16902,0 0.26004,-0.0715 0.26004,-0.18853 0,-0.14302 -0.10402,-0.25354 -0.31205,-0.25354 -0.0845,0 -0.22753,0.0455 -0.31855,0.065 -0.026,0.007 -0.052,0.013 -0.065,0.013 -0.0455,0.013 -0.078,0.013 -0.13002,0.013 -0.17552,0 -0.41606,0.0195 -0.52658,0.026 -0.42256,0.0325 -0.6826,0.0715 -1.06616,0.14302 -0.16252,0.0325 -0.31855,0.0715 -0.46157,0.11702 -0.16903,0.052 -0.32505,0.11701 -0.47457,0.19503 -0.19503,0.0975 -0.34455,0.20153 -0.48108,0.33155 -0.21453,0.20153 -0.33155,0.44857 -0.33155,0.71511 0,0.14952 0.026,0.29254 0.078,0.39006 0.0325,0.0585 0.10401,0.16902 0.20803,0.24053 0.078,0.052 0.16252,0.078 0.24703,0.078 0.0975,0 0.18203,-0.078 0.18203,-0.17552 0,-0.10402 -0.078,-0.15603 -0.14302,-0.19503 -0.026,-0.0195 -0.052,-0.039 -0.0715,-0.0585 -0.0715,-0.065 -0.11702,-0.16253 -0.11702,-0.26004 0,-0.0585 0.007,-0.13002 0.039,-0.20153 0.065,-0.14952 0.18203,-0.28605 0.35755,-0.39656 0.15603,-0.10402 0.25354,-0.14953 0.43557,-0.22104 0.21453,-0.091 0.28604,-0.10401 0.46157,-0.14302 0.18853,-0.0455 0.35105,-0.0845 0.56559,-0.11051 0.20153,-0.0325 0.39005,-0.052 0.59159,-0.0715 0.0845,-0.007 0.18852,-0.013 0.28604,-0.013 0.039,0 0.052,0.007 0.052,0.0195 0,0.0195 -0.013,0.0455 -0.0455,0.078 -0.13652,0.18203 -0.24704,0.33155 -0.35105,0.48757 -0.0975,0.15603 -0.25354,0.39656 -0.35106,0.58509 -0.0715,0.14302 -0.19503,0.37706 -0.33805,0.6696 -0.026,0.0585 -0.065,0.091 -0.18203,0.0975 -0.026,0 -0.091,0.007 -0.16902,0.013 -0.14952,0.007 -0.32505,0.013 -0.46157,0.026 -0.0585,0.006 -0.10402,0.026 -0.14302,0.0455 -0.0455,0.0325 -0.065,0.078 -0.065,0.13002 0,0.12352 0.0585,0.20153 0.19503,0.20153 0.0455,0 0.11051,-0.007 0.18852,-0.013 0.13002,-0.013 0.24704,-0.013 0.37056,-0.013 0.026,0 0.0325,0.013 0.0325,0.0195 0,0.0195 -0.007,0.039 -0.0195,0.065 -0.0325,0.0715 -0.052,0.12352 -0.078,0.18853 -0.0585,0.13002 -0.14952,0.35755 -0.22103,0.57859 -0.026,0.078 -0.0715,0.22103 -0.0845,0.28604 -0.0195,0.11052 -0.039,0.18203 -0.039,0.26004 0,0.11702 0.078,0.23404 0.21453,0.23404 z m 2.45087,-0.35756 c 0.24704,0 0.42257,-0.11702 0.59159,-0.27954 0.039,-0.039 0.10402,-0.10402 0.14302,-0.14952 0.026,-0.026 0.078,-0.0845 0.11052,-0.078 0.026,0 0.039,0.026 0.0585,0.0585 0.0195,0.0455 0.065,0.11052 0.10401,0.14302 0.0845,0.0845 0.18853,0.11702 0.29255,0.11702 0.11052,0 0.22103,-0.0325 0.31205,-0.091 0.18202,-0.11052 0.31855,-0.30555 0.42906,-0.48758 0.0715,-0.0975 0.13002,-0.21453 0.19503,-0.32505 0.039,-0.078 0.12352,-0.22753 0.12352,-0.27954 0,-0.0975 -0.0715,-0.16902 -0.15602,-0.16902 -0.0195,0 -0.0325,0 -0.052,0.007 -0.0975,0.039 -0.14302,0.16252 -0.18853,0.24704 -0.11702,0.20153 -0.23404,0.42256 -0.39656,0.59159 -0.052,0.052 -0.14302,0.14302 -0.22753,0.14302 -0.11052,0 -0.12352,-0.11702 -0.12352,-0.20803 0,-0.20154 0.0845,-0.52008 0.18202,-0.77362 0.026,-0.065 0.0715,-0.14302 0.0715,-0.22104 0,-0.026 -0.007,-0.052 -0.0195,-0.078 -0.0325,-0.052 -0.0845,-0.078 -0.14302,-0.078 -0.039,0 -0.078,0.006 -0.11052,0.0325 -0.0845,0.065 -0.12352,0.17553 -0.16252,0.26655 -0.0455,0.10401 -0.0975,0.20803 -0.14952,0.30554 -0.0975,0.20803 -0.22104,0.40956 -0.35756,0.59159 -0.12352,0.17553 -0.31205,0.37056 -0.53958,0.37056 -0.13002,0 -0.17553,-0.091 -0.17553,-0.22104 0,-0.29254 0.24704,-0.78011 0.30555,-0.89063 0.052,-0.10402 0.11702,-0.20803 0.17553,-0.30555 0.0455,-0.0715 0.11701,-0.15602 0.11701,-0.24053 0,-0.026 -0.007,-0.0455 -0.0195,-0.0715 -0.026,-0.0585 -0.091,-0.0845 -0.14952,-0.0845 -0.0325,0 -0.065,0.006 -0.091,0.0195 -0.0975,0.0455 -0.15602,0.15602 -0.21453,0.24703 -0.12352,0.19503 -0.22103,0.39656 -0.31205,0.6046 -0.0455,0.10401 -0.091,0.22103 -0.12351,0.33155 -0.0195,0.078 -0.052,0.22103 -0.052,0.34455 0,0.11051 0.0195,0.21453 0.065,0.31855 0.0975,0.19503 0.28604,0.29254 0.48757,0.29254 z m 2.80192,-0.026 c 0.14302,0 0.28605,-0.065 0.40957,-0.14302 0.29254,-0.19503 0.55908,-0.53959 0.73461,-0.83863 0.0455,-0.078 0.10401,-0.17553 0.13652,-0.25354 0.013,-0.026 0.0195,-0.0585 0.0195,-0.0845 0,-0.0585 -0.039,-0.10402 -0.091,-0.13652 -0.0325,-0.013 -0.0585,-0.0195 -0.0845,-0.0195 -0.052,0 -0.091,0.013 -0.12351,0.0715 -0.0455,0.078 -0.0975,0.17553 -0.14953,0.26004 -0.0975,0.16253 -0.22103,0.34456 -0.35105,0.48108 -0.0585,0.065 -0.30555,0.31854 -0.46157,0.31854 -0.065,0 -0.0975,-0.0455 -0.0975,-0.10401 0,-0.0195 0,-0.0325 0.007,-0.052 0.052,-0.18203 0.18852,-0.37056 0.29254,-0.51358 0.091,-0.13652 0.22753,-0.27954 0.22753,-0.44857 0,-0.22103 -0.20803,-0.33155 -0.36405,-0.43556 -0.0715,-0.0455 -0.18853,-0.078 -0.18853,-0.17553 0,-0.0455 0.0195,-0.091 0.0325,-0.13652 0.013,-0.0455 0.0195,-0.0975 0.0195,-0.14952 0,-0.10402 -0.0455,-0.19503 -0.18203,-0.19503 -0.0585,0 -0.12352,0.0195 -0.17553,0.052 -0.11051,0.078 -0.18202,0.21453 -0.18202,0.35105 0,0.039 0.007,0.0715 0.0195,0.11052 0.007,0.039 0.026,0.078 0.026,0.12352 0,0.006 0,0.013 0,0.013 -0.006,0.052 -0.026,0.091 -0.0455,0.13652 -0.039,0.0845 -0.091,0.18203 -0.13652,0.26004 -0.0325,0.065 -0.078,0.13652 -0.078,0.20153 0,0.078 0.11052,0.14952 0.18203,0.14952 0.0195,0 0.0455,-0.007 0.065,-0.013 0.052,-0.026 0.091,-0.13002 0.13002,-0.19503 0.039,-0.078 0.0715,-0.16253 0.11702,-0.24054 0.026,-0.052 0.0585,-0.078 0.0975,-0.078 0.026,0 0.0585,0.013 0.091,0.0325 0.065,0.0325 0.20803,0.0975 0.20803,0.18852 0,0.0715 -0.0845,0.14953 -0.11702,0.20154 -0.052,0.0845 -0.11052,0.16902 -0.16252,0.24703 -0.11702,0.17553 -0.24054,0.40957 -0.24054,0.6176 0,0.21453 0.17553,0.39656 0.41606,0.39656 z m 0.6241,-0.0195 c 0.0585,0 0.10401,-0.0325 0.14302,-0.0715 0.039,-0.052 0.065,-0.11701 0.0975,-0.17552 0.052,-0.0975 0.10402,-0.19503 0.15603,-0.29905 0.10401,-0.20803 0.21453,-0.38356 0.37055,-0.57209 0.14303,-0.16902 0.29905,-0.33155 0.48108,-0.46807 0.0845,-0.0715 0.17552,-0.14302 0.27954,-0.18203 0.0195,-0.007 0.039,-0.013 0.065,-0.013 0.039,0 0.078,0.0195 0.078,0.078 0,0.0325 -0.013,0.065 -0.026,0.091 -0.0455,0.11052 -0.0975,0.21453 -0.14952,0.31855 -0.0585,0.11051 -0.11702,0.22103 -0.16903,0.33805 -0.0455,0.0975 -0.078,0.22753 -0.078,0.34455 0,0.11052 0.026,0.21453 0.0845,0.29905 0.091,0.11701 0.22103,0.16902 0.35755,0.16902 0.078,0 0.16253,-0.013 0.23404,-0.0455 0.21453,-0.091 0.39006,-0.27305 0.53958,-0.46157 0.0715,-0.0975 0.15603,-0.22104 0.21454,-0.32505 0.0325,-0.0585 0.0975,-0.15603 0.13001,-0.23404 0.026,-0.0585 0.026,-0.0845 0.026,-0.11702 0,-0.0845 -0.0715,-0.16902 -0.14952,-0.16252 -0.0585,0 -0.11052,0.026 -0.13652,0.0715 -0.039,0.065 -0.065,0.11052 -0.091,0.14952 -0.11702,0.20153 -0.23403,0.41606 -0.40306,0.58509 -0.078,0.078 -0.22753,0.18853 -0.32505,0.18853 -0.078,0 -0.11702,-0.065 -0.11702,-0.13652 0,-0.0195 0.007,-0.0325 0.007,-0.052 0.0455,-0.23404 0.18853,-0.43557 0.29905,-0.6501 0.0585,-0.11702 0.11702,-0.26654 0.11702,-0.40956 0,-0.078 -0.0195,-0.15602 -0.0585,-0.22754 -0.0715,-0.11701 -0.18853,-0.15602 -0.31205,-0.15602 -0.10402,0 -0.20803,0.026 -0.29254,0.065 -0.10402,0.052 -0.17553,0.12352 -0.26004,0.20153 -0.0455,0.039 -0.091,0.078 -0.13652,0.11052 -0.013,0.013 -0.0325,0.0195 -0.0455,0.0195 -0.013,0 -0.026,-0.007 -0.026,-0.026 0,-0.065 0.0585,-0.18203 0.0585,-0.26654 0,-0.0975 -0.065,-0.16903 -0.16252,-0.16903 -0.052,0 -0.10402,0.026 -0.13652,0.065 -0.0715,0.078 -0.0975,0.20153 -0.13652,0.29905 -0.039,0.11701 -0.078,0.22753 -0.12352,0.33805 -0.091,0.23403 -0.17553,0.42256 -0.28604,0.6501 -0.052,0.11701 -0.0975,0.22753 -0.14953,0.33805 -0.026,0.0585 -0.052,0.12352 -0.078,0.18203 -0.0195,0.052 -0.0455,0.11051 -0.0455,0.16252 0,0.10402 0.0845,0.15602 0.15603,0.15602 z m 3.3025,-2.6264 c 0.039,0 0.0715,-0.007 0.10401,-0.0195 0.11052,-0.0585 0.21454,-0.23403 0.21454,-0.37056 0,-0.13652 -0.091,-0.22103 -0.20804,-0.22103 -0.026,0 -0.052,0.007 -0.0845,0.0195 -0.13652,0.065 -0.20803,0.21454 -0.20803,0.36406 0,0.0715 0.013,0.14952 0.078,0.19503 0.0325,0.026 0.065,0.0325 0.10402,0.0325 z m -0.55259,2.52889 c 0.28605,0 0.52008,-0.19503 0.70211,-0.43557 0.0975,-0.12352 0.18853,-0.26004 0.26654,-0.39656 0.0325,-0.065 0.0715,-0.13002 0.10402,-0.20153 0.0325,-0.0585 0.0715,-0.12352 0.0715,-0.19503 0,-0.091 -0.0715,-0.14302 -0.14953,-0.14302 -0.026,0 -0.0585,0.007 -0.091,0.026 -0.0585,0.0325 -0.078,0.091 -0.11052,0.14303 -0.0325,0.0585 -0.0715,0.11701 -0.10401,0.17552 -0.0715,0.11052 -0.14302,0.22104 -0.22104,0.33155 -0.078,0.11052 -0.17552,0.21454 -0.29904,0.28605 -0.039,0.026 -0.091,0.0455 -0.14302,0.0455 -0.078,0 -0.11052,-0.0585 -0.11052,-0.15602 0.007,-0.11052 0.039,-0.24054 0.065,-0.33805 0.039,-0.13002 0.0975,-0.26004 0.15602,-0.39006 0.052,-0.11702 0.11052,-0.23404 0.16903,-0.35105 0.039,-0.078 0.10401,-0.18203 0.10401,-0.27305 0,-0.0975 -0.065,-0.16252 -0.15602,-0.16252 -0.052,0 -0.11052,0.0195 -0.14302,0.0585 -0.0975,0.0845 -0.13652,0.22103 -0.18853,0.33155 -0.0585,0.12352 -0.11702,0.24054 -0.16252,0.37056 -0.0975,0.24053 -0.18853,0.50707 -0.18853,0.77361 0,0.11702 0.0195,0.24704 0.091,0.34456 0.052,0.0715 0.16903,0.15602 0.33805,0.15602 z m 1.18318,0.091 c 0.0845,0 0.16253,-0.007 0.24054,-0.026 0.16903,-0.0325 0.33155,-0.0845 0.48107,-0.16253 0.18853,-0.091 0.35756,-0.22103 0.51358,-0.35755 0.13652,-0.12352 0.26004,-0.27304 0.35756,-0.43557 0.052,-0.078 0.16902,-0.23403 0.16902,-0.30554 0,-0.0455 -0.026,-0.10402 -0.078,-0.13652 -0.0325,-0.026 -0.0715,-0.0325 -0.11052,-0.0325 -0.039,0 -0.078,0.013 -0.12352,0.0845 -0.039,0.0715 -0.091,0.15603 -0.12351,0.20804 -0.10402,0.16252 -0.22104,0.31204 -0.37056,0.42906 -0.17553,0.13652 -0.25354,0.18203 -0.28604,0.18203 -0.0325,0 -0.0455,-0.0325 -0.039,-0.0585 0,-0.0195 0,-0.0325 0,-0.0455 0.013,-0.0845 0.006,-0.13002 0.006,-0.21453 0,-0.0845 0,-0.16903 -0.013,-0.24704 -0.0195,-0.18202 -0.0455,-0.37055 -0.078,-0.54608 -0.0195,-0.091 -0.0325,-0.18203 -0.0325,-0.27304 0,-0.0975 0.052,-0.16903 0.052,-0.26004 0,-0.091 -0.052,-0.15603 -0.11702,-0.19503 -0.0325,-0.0195 -0.065,-0.026 -0.091,-0.026 -0.13002,0 -0.22104,0.16253 -0.27955,0.26655 -0.091,0.15602 -0.15602,0.27954 -0.24703,0.44206 -0.052,0.0845 -0.078,0.14953 -0.12352,0.22754 -0.0325,0.065 -0.078,0.13652 -0.078,0.20153 0,0.078 0.11051,0.14952 0.18202,0.14952 0.0195,0 0.0455,-0.007 0.065,-0.013 0.052,-0.026 0.091,-0.13002 0.13002,-0.19503 0.0195,-0.052 0.0455,-0.10402 0.065,-0.14302 0.0325,-0.052 0.0585,-0.0845 0.0845,-0.0845 0.007,0 0.0195,0.007 0.026,0.013 0.026,0.026 0.026,0.078 0.0325,0.11051 0.007,0.0455 0.013,0.091 0.0195,0.14303 0.026,0.18202 0.052,0.34455 0.052,0.53308 0,0.15602 -0.078,0.33155 -0.22104,0.40956 -0.039,0.0195 -0.0715,0.026 -0.11051,0.026 -0.0455,0 -0.091,-0.013 -0.13652,-0.0325 -0.0455,-0.0195 -0.0975,-0.039 -0.14953,-0.039 -0.11051,0 -0.16252,0.078 -0.16252,0.15603 0,0.0325 0.013,0.0585 0.026,0.0845 0.039,0.065 0.11702,0.10401 0.18853,0.12352 0.091,0.026 0.18853,0.039 0.27954,0.039 z m 1.17668,0.052 c 0.0715,0 0.11052,-0.0455 0.14953,-0.10401 0.0455,-0.0585 0.0845,-0.13002 0.13002,-0.19503 0.0845,-0.13653 0.20153,-0.29905 0.29904,-0.43557 0.18203,-0.26004 0.37706,-0.50708 0.60459,-0.72811 0.11702,-0.11702 0.21454,-0.22754 0.35756,-0.30555 0.0325,-0.013 0.078,-0.0325 0.11702,-0.0325 0.0325,0 0.065,0.0195 0.065,0.0845 0,0.0585 -0.0325,0.12352 -0.0585,0.16903 -0.065,0.14952 -0.13652,0.29904 -0.21453,0.44206 -0.0585,0.11052 -0.11702,0.33805 -0.11702,0.46807 0,0.13652 0.065,0.26654 0.16902,0.35756 0.0715,0.052 0.14953,0.078 0.23404,0.078 0.0715,0 0.13652,-0.0195 0.20153,-0.039 0.15602,-0.0585 0.29254,-0.14952 0.41606,-0.26004 0.11052,-0.11051 0.22104,-0.23403 0.31205,-0.35755 0.091,-0.12352 0.19503,-0.27954 0.25354,-0.41606 0.013,-0.013 0.013,-0.039 0.013,-0.0585 0,-0.039 -0.0195,-0.0845 -0.0585,-0.13002 -0.0325,-0.0325 -0.078,-0.052 -0.12352,-0.052 -0.0325,0 -0.0585,0 -0.078,0.0195 -0.039,0.0455 -0.0715,0.13002 -0.11052,0.19503 -0.039,0.065 -0.091,0.14302 -0.13652,0.20803 -0.091,0.13653 -0.20803,0.26655 -0.33805,0.37056 -0.052,0.0455 -0.20153,0.16903 -0.30554,0.16903 -0.065,0 -0.0975,-0.0455 -0.0975,-0.11702 0,-0.0455 0.026,-0.10402 0.039,-0.14302 0.026,-0.065 0.0585,-0.13002 0.091,-0.18853 0.0715,-0.14302 0.14952,-0.27954 0.20803,-0.42907 0.0455,-0.10401 0.078,-0.22103 0.078,-0.34455 0,-0.24054 -0.16902,-0.37706 -0.35755,-0.37706 -0.31855,0 -0.58509,0.26004 -0.78662,0.48108 -0.0585,0.065 -0.11052,0.13002 -0.16252,0.19503 -0.013,0.0195 -0.0585,0.078 -0.0975,0.13002 -0.0195,0.0325 -0.039,0.0455 -0.0585,0.0455 -0.0195,0 -0.0195,-0.0195 -0.0195,-0.0325 0,-0.0585 0.052,-0.16903 0.0845,-0.26004 0.026,-0.065 0.052,-0.14952 0.0975,-0.20153 0.052,-0.065 0.12352,-0.11702 0.18852,-0.17553 0.0585,-0.039 0.11052,-0.078 0.16253,-0.12352 0.13002,-0.10401 0.25354,-0.22103 0.36406,-0.34455 0.10401,-0.11052 0.20153,-0.20803 0.29254,-0.32505 0.0975,-0.13002 0.18203,-0.25354 0.25354,-0.39656 0.0715,-0.13652 0.12352,-0.28604 0.12352,-0.44207 0,-0.17552 -0.10402,-0.33805 -0.29905,-0.33805 -0.27304,0 -0.52008,0.31855 -0.6631,0.53308 -0.17553,0.26004 -0.33805,0.55259 -0.46157,0.84513 -0.026,0.0715 -0.0585,0.14952 -0.091,0.22754 -0.0325,0.0715 -0.0585,0.14302 -0.0975,0.20803 -0.039,0.0585 -0.10401,0.0975 -0.14952,0.14952 -0.039,0.0455 -0.052,0.078 -0.052,0.11702 0,0.026 0.013,0.091 0.013,0.11702 0,0.0325 -0.0195,0.11051 -0.052,0.18852 -0.0325,0.0715 -0.0585,0.14953 -0.091,0.22104 -0.0585,0.16902 -0.11052,0.33155 -0.16902,0.50057 -0.052,0.15603 -0.10402,0.31205 -0.16903,0.46808 -0.0195,0.0585 -0.039,0.13652 -0.039,0.20803 0,0.0845 0.0325,0.15602 0.13652,0.15602 z m 1.08567,-2.40537 c -0.013,0 -0.0195,-0.013 -0.0195,-0.026 0,-0.013 0.007,-0.026 0.007,-0.039 0.0325,-0.091 0.12352,-0.25353 0.16252,-0.33805 0.091,-0.16252 0.19503,-0.33805 0.30555,-0.48757 0.0585,-0.0715 0.11702,-0.15602 0.18203,-0.22103 0.026,-0.026 0.0715,-0.078 0.11051,-0.078 0.026,0 0.039,0.013 0.039,0.039 0,0.0455 -0.013,0.11052 -0.039,0.17553 -0.0195,0.052 -0.0455,0.0975 -0.0715,0.13652 -0.0455,0.091 -0.11051,0.17552 -0.16252,0.25354 -0.10402,0.15602 -0.28605,0.38355 -0.40956,0.50707 -0.026,0.0325 -0.0715,0.078 -0.10402,0.078 z m 2.32085,-0.26654 c 0.039,0 0.0715,-0.007 0.10402,-0.0195 0.11051,-0.0585 0.21453,-0.23403 0.21453,-0.37056 0,-0.13652 -0.091,-0.22103 -0.20803,-0.22103 -0.026,0 -0.052,0.007 -0.0845,0.0195 -0.13652,0.065 -0.20803,0.21454 -0.20803,0.36406 0,0.0715 0.013,0.14952 0.078,0.19503 0.0325,0.026 0.065,0.0325 0.10402,0.0325 z m -0.55258,2.52889 c 0.28604,0 0.52008,-0.19503 0.7021,-0.43557 0.0975,-0.12352 0.18853,-0.26004 0.26654,-0.39656 0.0325,-0.065 0.0715,-0.13002 0.10402,-0.20153 0.0325,-0.0585 0.0715,-0.12352 0.0715,-0.19503 0,-0.091 -0.0715,-0.14302 -0.14952,-0.14302 -0.026,0 -0.0585,0.007 -0.091,0.026 -0.0585,0.0325 -0.078,0.091 -0.11051,0.14303 -0.0325,0.0585 -0.0715,0.11701 -0.10402,0.17552 -0.0715,0.11052 -0.14302,0.22104 -0.22103,0.33155 -0.078,0.11052 -0.17553,0.21454 -0.29905,0.28605 -0.039,0.026 -0.091,0.0455 -0.14302,0.0455 -0.078,0 -0.11052,-0.0585 -0.11052,-0.15602 0.007,-0.11052 0.039,-0.24054 0.065,-0.33805 0.039,-0.13002 0.0975,-0.26004 0.15603,-0.39006 0.052,-0.11702 0.11051,-0.23404 0.16902,-0.35105 0.039,-0.078 0.10402,-0.18203 0.10402,-0.27305 0,-0.0975 -0.065,-0.16252 -0.15603,-0.16252 -0.052,0 -0.11051,0.0195 -0.14302,0.0585 -0.0975,0.0845 -0.13652,0.22103 -0.18853,0.33155 -0.0585,0.12352 -0.11701,0.24054 -0.16252,0.37056 -0.0975,0.24053 -0.18853,0.50707 -0.18853,0.77361 0,0.11702 0.0195,0.24704 0.091,0.34456 0.052,0.0715 0.16903,0.15602 0.33806,0.15602 z m 0.46157,0.0975 c 0.0585,0 0.10401,-0.0325 0.14302,-0.0715 0.039,-0.052 0.065,-0.11701 0.0975,-0.17552 0.052,-0.0975 0.10402,-0.19503 0.15603,-0.29905 0.10401,-0.20803 0.21453,-0.38356 0.37055,-0.57209 0.14303,-0.16902 0.29905,-0.33155 0.48108,-0.46807 0.0845,-0.0715 0.17552,-0.14302 0.27954,-0.18203 0.0195,-0.007 0.039,-0.013 0.065,-0.013 0.039,0 0.078,0.0195 0.078,0.078 0,0.0325 -0.013,0.065 -0.026,0.091 -0.0455,0.11052 -0.0975,0.21453 -0.14953,0.31855 -0.0585,0.11051 -0.11701,0.22103 -0.16902,0.33805 -0.0455,0.0975 -0.078,0.22753 -0.078,0.34455 0,0.11052 0.026,0.21453 0.0845,0.29905 0.091,0.11701 0.22103,0.16902 0.35755,0.16902 0.078,0 0.16253,-0.013 0.23404,-0.0455 0.21453,-0.091 0.39006,-0.27305 0.53958,-0.46157 0.0715,-0.0975 0.15603,-0.22104 0.21453,-0.32505 0.0325,-0.0585 0.0975,-0.15603 0.13002,-0.23404 0.026,-0.0585 0.026,-0.0845 0.026,-0.11702 0,-0.0845 -0.0715,-0.16902 -0.14952,-0.16252 -0.0585,0 -0.11052,0.026 -0.13652,0.0715 -0.039,0.065 -0.065,0.11052 -0.091,0.14952 -0.11702,0.20153 -0.23403,0.41606 -0.40306,0.58509 -0.078,0.078 -0.22753,0.18853 -0.32505,0.18853 -0.078,0 -0.11702,-0.065 -0.11702,-0.13652 0,-0.0195 0.007,-0.0325 0.007,-0.052 0.0455,-0.23404 0.18853,-0.43557 0.29905,-0.6501 0.0585,-0.11702 0.11702,-0.26654 0.11702,-0.40956 0,-0.078 -0.0195,-0.15602 -0.0585,-0.22754 -0.0715,-0.11701 -0.18853,-0.15602 -0.31205,-0.15602 -0.10402,0 -0.20803,0.026 -0.29254,0.065 -0.10402,0.052 -0.17553,0.12352 -0.26004,0.20153 -0.0455,0.039 -0.091,0.078 -0.13652,0.11052 -0.013,0.013 -0.0325,0.0195 -0.0455,0.0195 -0.013,0 -0.026,-0.007 -0.026,-0.026 0,-0.065 0.0585,-0.18203 0.0585,-0.26654 0,-0.0975 -0.065,-0.16903 -0.16252,-0.16903 -0.052,0 -0.10402,0.026 -0.13652,0.065 -0.0715,0.078 -0.0975,0.20153 -0.13652,0.29905 -0.039,0.11701 -0.078,0.22753 -0.12352,0.33805 -0.091,0.23403 -0.17553,0.42256 -0.28605,0.6501 -0.052,0.11701 -0.0975,0.22753 -0.14952,0.33805 -0.026,0.0585 -0.052,0.12352 -0.078,0.18203 -0.0195,0.052 -0.0455,0.11051 -0.0455,0.16252 0,0.10402 0.0845,0.15602 0.15603,0.15602 z m 1.92429,2.19084 c 0.12352,0 0.27304,-0.039 0.40306,-0.11052 0.22753,-0.11052 0.42256,-0.31855 0.59809,-0.53308 0.17553,-0.22103 0.29905,-0.48757 0.42907,-0.74111 0.0585,-0.13002 0.11051,-0.24054 0.16252,-0.37056 0.026,-0.0715 0.0455,-0.14952 0.0975,-0.20803 0.039,-0.039 0.0975,-0.0715 0.14953,-0.10402 0.24053,-0.14952 0.42906,-0.30554 0.6436,-0.49407 0.11051,-0.0975 0.25353,-0.26004 0.33805,-0.37706 0.091,-0.12352 0.15602,-0.23404 0.22753,-0.36406 0.0325,-0.065 0.0715,-0.11051 0.0715,-0.18202 0,-0.091 -0.11051,-0.16903 -0.17552,-0.16903 -0.0455,0 -0.078,0.0195 -0.11052,0.065 -0.0325,0.052 -0.0715,0.13002 -0.091,0.16903 -0.13653,0.24703 -0.29255,0.43556 -0.48758,0.62409 -0.0455,0.0455 -0.11052,0.0975 -0.16252,0.14302 -0.0455,0.0455 -0.13002,0.11702 -0.18853,0.11702 -0.026,0 -0.0325,-0.026 -0.0325,-0.052 0,-0.026 0,-0.052 0.006,-0.0715 0.0195,-0.0715 0.0455,-0.14302 0.0715,-0.21453 0.10402,-0.28604 0.20153,-0.57209 0.30555,-0.86463 0.026,-0.065 0.052,-0.13652 0.0845,-0.20153 0.0325,-0.0585 0.0585,-0.11702 0.0585,-0.18203 0,-0.0975 -0.0845,-0.18203 -0.18203,-0.18203 -0.0845,0 -0.14302,0.065 -0.22103,0.065 -0.078,0 -0.21453,-0.039 -0.34455,-0.039 -0.091,0 -0.18203,0.013 -0.27304,0.039 -0.27304,0.091 -0.51358,0.29905 -0.68261,0.52658 -0.16902,0.22754 -0.31855,0.48108 -0.37705,0.76062 -0.0195,0.0975 -0.039,0.18853 -0.039,0.29904 0,0.16903 0.0585,0.33806 0.20153,0.44207 0.065,0.052 0.14302,0.0715 0.22103,0.0715 0.18853,0 0.39006,-0.13002 0.52008,-0.24704 0.052,-0.039 0.13002,-0.12351 0.16903,-0.17552 0.0845,-0.091 0.0975,-0.11702 0.12352,-0.11702 0.013,0 0.0195,0.007 0.0195,0.0325 0,0.052 -0.078,0.26655 -0.0975,0.31205 -0.0195,0.0585 -0.078,0.10402 -0.12352,0.14302 -0.11052,0.078 -0.23404,0.13652 -0.35106,0.20153 -0.11701,0.065 -0.26654,0.14303 -0.37705,0.21454 -0.24054,0.15602 -0.45507,0.29254 -0.6631,0.48757 -0.20804,0.19503 -0.41607,0.47457 -0.41607,0.77362 0,0.26654 0.21453,0.51358 0.49408,0.51358 z m 0.75411,-2.48338 c -0.065,0 -0.13652,-0.052 -0.13652,-0.16253 0,-0.13001 0.052,-0.25353 0.12352,-0.45506 0.0585,-0.14303 0.14302,-0.27305 0.23404,-0.39656 0.14302,-0.20154 0.42256,-0.46808 0.6891,-0.46808 0.091,0 0.16903,0.052 0.16903,0.14303 0,0.11701 -0.0845,0.26654 -0.14953,0.37705 -0.0715,0.11702 -0.14952,0.24054 -0.23403,0.35106 -0.078,0.11051 -0.17553,0.22753 -0.27304,0.33155 -0.091,0.11051 -0.18853,0.18853 -0.31205,0.24703 -0.0325,0.013 -0.065,0.0325 -0.11052,0.0325 z m -0.72811,2.16483 c -0.11702,0 -0.18203,-0.078 -0.18203,-0.19503 0,-0.0325 0,-0.065 0.013,-0.091 0.039,-0.14953 0.13652,-0.26654 0.24703,-0.37056 0.18853,-0.20153 0.40306,-0.35756 0.6306,-0.50058 0.13002,-0.0845 0.37056,-0.26654 0.48107,-0.26654 0.013,0 0.026,0.007 0.026,0.0325 0,0.039 -0.0975,0.21453 -0.13002,0.27954 -0.065,0.11702 -0.13652,0.23404 -0.21454,0.34455 -0.0715,0.11052 -0.15602,0.22754 -0.24053,0.33155 -0.0845,0.11052 -0.18203,0.20153 -0.28605,0.27955 -0.0975,0.0715 -0.20153,0.15602 -0.34455,0.15602 z m 4.69372,-1.82678 c 0.23403,0 0.44857,-0.16252 0.61109,-0.30555 0.0455,-0.0455 0.091,-0.091 0.13652,-0.13652 0.0455,-0.039 0.10402,-0.11701 0.15602,-0.11701 0.0325,0 0.0715,0.0455 0.091,0.0845 0.0975,0.16902 0.25354,0.27954 0.39656,0.27954 0.0975,0 0.20153,-0.0195 0.29904,-0.065 0.21454,-0.0975 0.39656,-0.26654 0.55259,-0.46157 0.078,-0.10401 0.13652,-0.20153 0.21453,-0.31855 0.039,-0.052 0.078,-0.13652 0.11052,-0.19503 0.026,-0.039 0.039,-0.078 0.039,-0.13002 0,-0.0975 -0.078,-0.15602 -0.16252,-0.15602 -0.0195,0 -0.039,0 -0.0585,0.013 -0.0585,0.026 -0.065,0.0455 -0.091,0.10402 -0.026,0.052 -0.0715,0.13002 -0.10402,0.18202 -0.0585,0.10402 -0.14302,0.21454 -0.21453,0.29905 -0.0845,0.091 -0.16903,0.18853 -0.27304,0.26654 -0.0845,0.065 -0.15603,0.0975 -0.26654,0.0975 -0.13652,0 -0.20804,-0.19503 -0.20804,-0.35106 0,-0.052 0.026,-0.16252 0.0715,-0.21453 0.16902,-0.20153 0.33155,-0.40956 0.46807,-0.6241 0.14952,-0.22103 0.29904,-0.43556 0.42256,-0.6696 0.11702,-0.22753 0.24704,-0.44206 0.34455,-0.6826 0.0585,-0.16253 0.14953,-0.35756 0.14953,-0.53958 0,-0.052 -0.006,-0.11052 -0.026,-0.16253 -0.039,-0.11051 -0.12352,-0.18853 -0.24704,-0.18853 -0.11051,0 -0.22103,0.0585 -0.30554,0.11702 -0.10402,0.0715 -0.18853,0.16253 -0.26004,0.26004 -0.078,0.0975 -0.15603,0.20153 -0.22104,0.30555 -0.026,0.0585 -0.065,0.11051 -0.091,0.16902 -0.026,0.0585 -0.052,0.11052 -0.078,0.16903 -0.0585,0.11702 -0.0975,0.24054 -0.15602,0.35755 -0.0585,0.11702 -0.10402,0.23404 -0.14303,0.35756 -0.026,0.0585 -0.052,0.12352 -0.13652,0.12352 -0.039,0 -0.078,-0.007 -0.11702,-0.007 -0.26654,0 -0.52007,0.11051 -0.7021,0.27304 -0.37706,0.33155 -0.6696,0.84513 -0.6696,1.3522 0,0.26004 0.16902,0.51358 0.46807,0.51358 z m 1.28719,-1.59274 c -0.039,0 0,-0.12352 0.007,-0.15603 0.039,-0.13002 0.15603,-0.41606 0.20804,-0.54608 0.052,-0.13002 0.12351,-0.29254 0.18852,-0.41606 0.065,-0.11702 0.13002,-0.22754 0.19503,-0.33805 0.065,-0.11702 0.13653,-0.22104 0.21454,-0.33155 0.039,-0.052 0.0845,-0.11052 0.13002,-0.15603 0.0195,-0.026 0.052,-0.0455 0.078,-0.0455 0.0195,0 0.0325,0.0195 0.0325,0.0455 0,0.0845 -0.0845,0.29255 -0.14952,0.42907 -0.078,0.14952 -0.15602,0.30554 -0.23403,0.45507 -0.12352,0.24053 -0.40307,0.6891 -0.55259,0.91664 -0.0325,0.0585 -0.0845,0.14302 -0.11702,0.14302 z m -1.28069,1.26119 c -0.078,0 -0.14952,-0.0455 -0.14952,-0.17553 0,-0.20153 0.14952,-0.51357 0.19503,-0.59809 0.11701,-0.22753 0.29904,-0.46157 0.51357,-0.59809 0.0585,-0.0325 0.11702,-0.0715 0.18853,-0.091 0.039,-0.013 0.091,-0.0195 0.14302,-0.0195 0.0585,0 0.0975,0.013 0.0975,0.0715 0,0.0195 -0.007,0.039 -0.007,0.0585 -0.0195,0.0715 -0.039,0.13653 -0.0585,0.20804 0,0.0195 -0.013,0.078 -0.026,0.14952 -0.007,0.052 -0.013,0.10401 -0.013,0.15602 -0.007,0.026 -0.007,0.0585 -0.0195,0.0845 -0.0195,0.0585 -0.065,0.10401 -0.11052,0.14952 -0.0455,0.052 -0.091,0.10401 -0.13652,0.15602 -0.0845,0.091 -0.16902,0.18203 -0.26654,0.26654 -0.0975,0.078 -0.22103,0.18203 -0.35105,0.18203 z m 3.05546,0.30555 c 0.14302,0 0.28604,-0.065 0.40956,-0.14302 0.29255,-0.19503 0.55909,-0.53959 0.73461,-0.83863 0.0455,-0.078 0.10402,-0.17553 0.13652,-0.25354 0.013,-0.026 0.0195,-0.0585 0.0195,-0.0845 0,-0.0585 -0.039,-0.10402 -0.091,-0.13652 -0.0325,-0.013 -0.0585,-0.0195 -0.0845,-0.0195 -0.052,0 -0.091,0.013 -0.12352,0.0715 -0.0455,0.078 -0.0975,0.17553 -0.14952,0.26004 -0.0975,0.16253 -0.22104,0.34456 -0.35106,0.48108 -0.0585,0.065 -0.30554,0.31854 -0.46157,0.31854 -0.065,0 -0.0975,-0.0455 -0.0975,-0.10401 0,-0.0195 0,-0.0325 0.006,-0.052 0.052,-0.18203 0.18853,-0.37056 0.29255,-0.51358 0.091,-0.13652 0.22753,-0.27954 0.22753,-0.44857 0,-0.22103 -0.20803,-0.33155 -0.36406,-0.43556 -0.0715,-0.0455 -0.18852,-0.078 -0.18852,-0.17553 0,-0.0455 0.0195,-0.091 0.0325,-0.13652 0.013,-0.0455 0.0195,-0.0975 0.0195,-0.14952 0,-0.10402 -0.0455,-0.19503 -0.18202,-0.19503 -0.0585,0 -0.12352,0.0195 -0.17553,0.052 -0.11052,0.078 -0.18203,0.21453 -0.18203,0.35105 0,0.039 0.006,0.0715 0.0195,0.11052 0.007,0.039 0.026,0.078 0.026,0.12352 0,0.006 0,0.013 0,0.013 -0.007,0.052 -0.026,0.091 -0.0455,0.13652 -0.039,0.0845 -0.091,0.18203 -0.13652,0.26004 -0.0325,0.065 -0.078,0.13652 -0.078,0.20153 0,0.078 0.11052,0.14952 0.18203,0.14952 0.0195,0 0.0455,-0.007 0.065,-0.013 0.052,-0.026 0.091,-0.13002 0.13002,-0.19503 0.039,-0.078 0.0715,-0.16253 0.11701,-0.24054 0.026,-0.052 0.0585,-0.078 0.0975,-0.078 0.026,0 0.0585,0.013 0.091,0.0325 0.065,0.0325 0.20803,0.0975 0.20803,0.18852 0,0.0715 -0.0845,0.14953 -0.11701,0.20154 -0.052,0.0845 -0.11052,0.16902 -0.16253,0.24703 -0.11702,0.17553 -0.24053,0.40957 -0.24053,0.6176 0,0.21453 0.17552,0.39656 0.41606,0.39656 z m 1.37171,0.0455 c 0.0975,0 0.19503,-0.013 0.28604,-0.0325 0.35755,-0.0845 0.6891,-0.29255 0.95564,-0.55909 0.13002,-0.13002 0.23404,-0.27304 0.33806,-0.43556 0.052,-0.078 0.11701,-0.17553 0.15602,-0.26004 0.026,-0.0455 0.052,-0.0845 0.052,-0.13652 0,-0.026 -0.007,-0.0585 -0.0325,-0.0845 -0.0325,-0.039 -0.078,-0.0585 -0.12352,-0.0585 -0.0325,0 -0.0585,0.007 -0.078,0.0195 -0.078,0.039 -0.11702,0.13002 -0.16252,0.19503 -0.0975,0.16252 -0.20153,0.31205 -0.33805,0.44207 -0.11702,0.12351 -0.24054,0.24703 -0.39006,0.34455 -0.19503,0.12352 -0.44207,0.21453 -0.6631,0.21453 -0.15603,0 -0.31855,-0.0585 -0.31855,-0.27954 0,-0.0455 0.013,-0.091 0.0455,-0.11702 0.052,-0.052 0.16903,-0.0715 0.24054,-0.091 0.091,-0.026 0.18203,-0.052 0.26654,-0.0845 0.091,-0.039 0.16903,-0.091 0.24704,-0.14302 0.14302,-0.0975 0.28604,-0.20803 0.39006,-0.35105 0.0845,-0.11702 0.16252,-0.26654 0.16252,-0.41607 0,-0.22103 -0.17552,-0.37055 -0.38356,-0.37055 -0.091,0 -0.19503,0.0195 -0.27954,0.0585 -0.32505,0.13652 -0.58509,0.42906 -0.77362,0.72811 -0.13652,0.22753 -0.27954,0.51358 -0.27954,0.78662 0,0.091 0.0195,0.18203 0.052,0.26654 0.11052,0.27304 0.36405,0.36405 0.6306,0.36405 z m -0.0585,-1.18318 c -0.013,0 -0.0325,-0.013 -0.0325,-0.0325 0,-0.052 0.0585,-0.12352 0.078,-0.14952 0.052,-0.078 0.11052,-0.14953 0.17553,-0.22104 0.0715,-0.065 0.13652,-0.11051 0.21453,-0.16902 0.0585,-0.0455 0.15603,-0.091 0.23404,-0.091 0.026,0 0.065,0.007 0.065,0.065 0,0.10402 -0.22104,0.31205 -0.26004,0.34456 -0.065,0.0585 -0.13652,0.11701 -0.20803,0.15602 -0.078,0.039 -0.17553,0.0975 -0.26654,0.0975 z m 1.62525,1.18318 c 0.0585,0 0.12352,-0.013 0.18202,-0.026 0.16253,-0.052 0.35756,-0.20803 0.47458,-0.33155 0.052,-0.0585 0.15602,-0.19503 0.20153,-0.19503 0.0195,0 0.0325,0.013 0.0455,0.039 0.10402,0.19503 0.18853,0.31204 0.43557,0.31204 0.14952,0 0.28604,-0.078 0.40306,-0.17552 0.10402,-0.078 0.20153,-0.17553 0.27954,-0.29255 0.12352,-0.18203 0.24704,-0.40956 0.34456,-0.59809 0.0195,-0.0455 0.0325,-0.0975 0.0325,-0.13002 0,-0.078 -0.039,-0.14302 -0.13002,-0.14302 -0.0975,0 -0.16252,0.0585 -0.20803,0.14302 -0.0455,0.091 -0.091,0.17553 -0.12352,0.24054 -0.091,0.16252 -0.18853,0.31855 -0.31855,0.44857 -0.065,0.0585 -0.17552,0.14952 -0.26654,0.14952 -0.0715,0 -0.12352,-0.052 -0.12352,-0.22103 0,-0.14303 0.0455,-0.29905 0.0845,-0.42907 0.0455,-0.16903 0.13002,-0.32505 0.20803,-0.48757 0.0325,-0.078 0.10401,-0.20154 0.10401,-0.30555 0,-0.0845 -0.065,-0.15602 -0.14302,-0.15602 -0.065,0 -0.12352,0.0455 -0.19503,0.0455 -0.091,0 -0.17552,-0.0325 -0.27304,-0.0325 -0.21453,0 -0.33805,0.0325 -0.52658,0.13652 -0.18203,0.0975 -0.34455,0.24053 -0.48107,0.39656 -0.26004,0.31205 -0.43557,0.72161 -0.43557,1.12467 0,0.14952 0.0325,0.30555 0.15602,0.40306 0.078,0.0585 0.17553,0.0845 0.27305,0.0845 z m 0.039,-0.35755 c -0.0845,0 -0.13002,-0.0845 -0.13002,-0.17553 0,-0.31204 0.20153,-0.6826 0.41607,-0.92314 0.11701,-0.13002 0.25353,-0.23403 0.41606,-0.29904 0.0585,-0.026 0.15602,-0.0585 0.23403,-0.0585 0.078,0 0.14303,0.026 0.14303,0.11702 0,0.16902 -0.15603,0.35105 -0.24704,0.49407 -0.0975,0.15602 -0.21453,0.29905 -0.32505,0.44207 -0.0975,0.13002 -0.20803,0.26004 -0.34455,0.35105 -0.052,0.0325 -0.11052,0.052 -0.16253,0.052 z m 1.64475,0.35105 c 0.14952,-0.007 0.22103,-0.20153 0.27304,-0.31204 0.0715,-0.14953 0.14302,-0.30555 0.22103,-0.45507 0.15603,-0.28605 0.34456,-0.58509 0.57209,-0.81263 0.0585,-0.0585 0.12352,-0.11051 0.18853,-0.15602 0.0455,-0.0325 0.12352,-0.078 0.18853,-0.078 0.065,0 0.0975,0.0455 0.0975,0.12352 0,0.091 -0.039,0.24053 -0.065,0.32505 -0.065,0.16252 -0.14952,0.31204 -0.22103,0.46807 -0.0715,0.14302 -0.15602,0.28604 -0.20803,0.44206 -0.013,0.0325 -0.0195,0.0715 -0.0195,0.11052 0,0.0325 0.007,0.065 0.026,0.0975 0.0325,0.052 0.091,0.078 0.14952,0.078 0.0975,0 0.16903,-0.0845 0.21453,-0.18203 0.026,-0.0585 0.0585,-0.12352 0.078,-0.17553 0.0585,-0.15602 0.14302,-0.30554 0.21453,-0.45507 0.078,-0.14952 0.16252,-0.29254 0.27304,-0.42256 0.091,-0.11702 0.20803,-0.21453 0.33155,-0.30555 0.0455,-0.026 0.18853,-0.11051 0.27954,-0.11051 0.052,0 0.091,0.026 0.091,0.0845 -0.007,0.065 -0.065,0.16252 -0.0975,0.22753 -0.039,0.078 -0.078,0.14953 -0.11702,0.22754 -0.0715,0.14952 -0.14302,0.30554 -0.18852,0.46807 -0.0195,0.078 -0.0325,0.16252 -0.0325,0.24054 0,0.078 0.013,0.15602 0.0455,0.22753 0.0715,0.13652 0.19503,0.21453 0.36405,0.21453 0.15603,0 0.31205,-0.078 0.43557,-0.16902 0.25354,-0.19503 0.44207,-0.46807 0.59809,-0.74112 0.052,-0.0845 0.14952,-0.26654 0.14952,-0.30554 0,-0.0325 -0.0195,-0.078 -0.0455,-0.11052 -0.0325,-0.039 -0.0845,-0.065 -0.13652,-0.065 -0.0195,0 -0.039,0.007 -0.0585,0.0195 -0.0585,0.026 -0.0845,0.0975 -0.11702,0.15603 -0.078,0.14952 -0.16903,0.28604 -0.26654,0.42256 -0.091,0.12352 -0.19503,0.24704 -0.31855,0.33805 -0.0585,0.0455 -0.13002,0.10402 -0.20803,0.10402 -0.0585,0 -0.091,-0.0455 -0.091,-0.10402 0,-0.11701 0.10402,-0.35105 0.16253,-0.48107 0.0715,-0.14952 0.14952,-0.29254 0.20803,-0.44857 0.026,-0.078 0.0455,-0.16252 0.0455,-0.24704 0,-0.0715 -0.013,-0.14302 -0.052,-0.20803 -0.065,-0.12352 -0.18853,-0.20803 -0.33805,-0.20803 -0.17553,0 -0.34455,0.0975 -0.48758,0.19503 -0.0585,0.0455 -0.11701,0.0975 -0.18202,0.13652 -0.013,0.013 -0.026,0.0195 -0.039,0.0195 -0.052,0 -0.0715,-0.0715 -0.0975,-0.12351 -0.0585,-0.13652 -0.16903,-0.21454 -0.31205,-0.21454 -0.16903,0 -0.29905,0.0845 -0.41607,0.19503 -0.0195,0.0195 -0.0845,0.091 -0.11701,0.091 -0.0195,0 -0.0325,-0.0195 -0.0325,-0.0585 0,-0.039 0.007,-0.0845 0.007,-0.12352 0,-0.026 0,-0.052 -0.013,-0.078 -0.026,-0.0585 -0.091,-0.0975 -0.15602,-0.0975 -0.078,0 -0.12352,0.052 -0.15603,0.11702 -0.0715,0.13652 -0.0975,0.29905 -0.15602,0.44207 -0.11702,0.31205 -0.22753,0.63059 -0.36406,0.93614 -0.0325,0.0715 -0.065,0.14952 -0.10401,0.22103 -0.0325,0.0715 -0.078,0.14303 -0.11702,0.21454 -0.0195,0.039 -0.039,0.091 -0.039,0.13652 0,0.026 0.007,0.052 0.0195,0.078 0.026,0.052 0.078,0.091 0.13652,0.091 z m 3.88109,-0.065 c 0.0845,0 0.16253,-0.007 0.24054,-0.026 0.16902,-0.0325 0.33155,-0.0845 0.48107,-0.16253 0.18853,-0.091 0.35756,-0.22103 0.51358,-0.35755 0.13652,-0.12352 0.26004,-0.27304 0.35756,-0.43557 0.052,-0.078 0.16902,-0.23403 0.16902,-0.30554 0,-0.0455 -0.026,-0.10402 -0.078,-0.13652 -0.0325,-0.026 -0.0715,-0.0325 -0.11052,-0.0325 -0.039,0 -0.078,0.013 -0.12352,0.0845 -0.039,0.0715 -0.091,0.15603 -0.12352,0.20804 -0.10401,0.16252 -0.22103,0.31204 -0.37055,0.42906 -0.17553,0.13652 -0.25354,0.18203 -0.28605,0.18203 -0.0325,0 -0.0455,-0.0325 -0.039,-0.0585 0,-0.0195 0,-0.0325 0,-0.0455 0.013,-0.0845 0.007,-0.13002 0.007,-0.21453 0,-0.0845 0,-0.16903 -0.013,-0.24704 -0.0195,-0.18202 -0.0455,-0.37055 -0.078,-0.54608 -0.0195,-0.091 -0.0325,-0.18203 -0.0325,-0.27304 0,-0.0975 0.052,-0.16903 0.052,-0.26004 0,-0.091 -0.052,-0.15603 -0.11702,-0.19503 -0.0325,-0.0195 -0.065,-0.026 -0.091,-0.026 -0.13002,0 -0.22104,0.16253 -0.27955,0.26655 -0.091,0.15602 -0.15602,0.27954 -0.24703,0.44206 -0.052,0.0845 -0.078,0.14953 -0.12352,0.22754 -0.0325,0.065 -0.078,0.13652 -0.078,0.20153 0,0.078 0.11051,0.14952 0.18202,0.14952 0.0195,0 0.0455,-0.007 0.065,-0.013 0.052,-0.026 0.091,-0.13002 0.13002,-0.19503 0.0195,-0.052 0.0455,-0.10402 0.065,-0.14302 0.0325,-0.052 0.0585,-0.0845 0.0845,-0.0845 0.007,0 0.0195,0.007 0.026,0.013 0.026,0.026 0.026,0.078 0.0325,0.11051 0.006,0.0455 0.013,0.091 0.0195,0.14303 0.026,0.18202 0.052,0.34455 0.052,0.53308 0,0.15602 -0.078,0.33155 -0.22104,0.40956 -0.039,0.0195 -0.0715,0.026 -0.11051,0.026 -0.0455,0 -0.091,-0.013 -0.13653,-0.0325 -0.0455,-0.0195 -0.0975,-0.039 -0.14952,-0.039 -0.11051,0 -0.16252,0.078 -0.16252,0.15603 0,0.0325 0.013,0.0585 0.026,0.0845 0.039,0.065 0.11702,0.10401 0.18853,0.12352 0.091,0.026 0.18853,0.039 0.27954,0.039 z"
     id="text1"
     aria-label="Furnishing dreams" /><rect
     style="fill:none;stroke-width:1.32623"
     id="rect1"
     width="105.83334"
     height="31.75"
     x="-6.1816409e-06"
     y="2.440918e-06"
     ry="1.2351662" /><path
     style="fill:#000000"
     d="m 3.71473,29.549498 c 0,-0.017 -0.004,-0.031 -0.009,-0.031 -0.006,0 -0.009,-0.31715 -0.009,-0.93375 0,-0.6166 0.003,-0.93375 0.009,-0.93375 0.005,0 0.009,-0.0159 0.009,-0.0354 v -0.0354 h 0.96473 0.96473 v -9.30651 c 0,-8.26655 0.001,-9.30651 0.0133,-9.30651 0.007,0 0.0133,-0.006 0.0133,-0.0133 0,-0.0117 0.12489,-0.0133 1.07093,-0.0133 0.70806,0 1.07094,0.003 1.07094,0.009 0,0.005 0.0159,0.009 0.0354,0.009 h 0.0354 v 9.25783 9.25784 h 0.99128 0.99128 l -1.2e-4,-0.3651 c -8e-5,-0.26036 -0.12199,-20.34314 -0.12359,-20.36103 -1.1e-4,-10e-4 -1.40191,-0.002 -3.11512,-0.002 -2.06707,0 -3.11677,-0.003 -3.1204,-0.009 -0.003,-0.005 -0.0192,-0.009 -0.0359,-0.009 h -0.0305 v -1.02669 -1.02668 h 0.0354 c 0.0195,0 0.0354,-0.004 0.0354,-0.009 0,-0.006 1.79964,-0.009 5.38122,-0.009 3.58159,0 5.38123,0.003 5.38123,0.009 0,0.005 0.0159,0.009 0.0354,0.009 h 0.0354 v 1.11962 c 0,0.74051 -0.003,1.11961 -0.009,1.11961 -0.005,0 -0.009,0.0159 -0.009,0.0354 v 0.0354 h -0.98685 c -0.87123,0 -0.98685,0.002 -0.98685,0.0133 0,0.017 -0.10459,5.68344 -0.10811,5.85697 -0.001,0.0718 8e-5,0.12957 0.003,0.12834 0.005,-0.002 9.03526,-8.41541 9.22866,-8.59829 l 0.0495,-0.0468 1.46772,0.002 1.46773,0.002 0.11859,0.20585 c 0.0652,0.11322 0.11662,0.21103 0.11419,0.21736 -0.004,0.0101 -12.09545,11.76382 -12.33933,11.99457 l -0.0938,0.0888 0.0103,4.57114 c 0.006,2.51412 0.0128,4.91928 0.0158,5.34479 l 0.006,0.77366 0.99019,-0.005 c 0.62583,-0.003 0.99019,-0.002 0.99019,0.003 0,0.005 0.0159,0.008 0.0354,0.008 h 0.0354 v 0.99462 c 0,0.91434 -10e-4,0.9956 -0.0146,1.00677 -0.0123,0.0102 -0.63912,0.0138 -3.95405,0.0224 -2.16668,0.006 -4.55177,0.0106 -5.30021,0.0111 l -1.3608,8.2e-4 z m 19.62412,-0.0465 c -0.0148,-0.028 -1.63872,-3.16147 -3.60872,-6.96329 -1.97001,-3.80182 -3.60436,-6.95532 -3.63189,-7.00778 -0.0325,-0.0618 -0.0467,-0.0976 -0.0406,-0.10178 0.005,-0.004 0.0118,-0.0126 0.0146,-0.0203 0.003,-0.008 0.40842,-0.34921 0.90138,-0.75908 0.68538,-0.56985 0.90021,-0.74396 0.91295,-0.73992 0.009,0.003 0.0222,7.1e-4 0.0289,-0.005 0.01,-0.008 0.015,-0.006 0.025,0.0103 0.0169,0.0272 8.26049,15.46995 8.28828,15.52644 0.0194,0.0394 0.0201,0.0448 0.007,0.0541 -0.008,0.006 -0.0141,0.0208 -0.0141,0.0337 v 0.0234 H 24.7935 23.36534 Z m 2.42298,-26.10735 v -0.8718 h -0.3142 -0.3142 v -0.17701 -0.17701 h 0.83639 0.83639 v 0.17701 0.17701 h -0.30977 -0.30978 v 0.8718 0.87179 h -0.21242 -0.21241 z m 1.31875,-0.17702 v -1.0488 h 0.31713 0.31713 l 0.18913,0.70805 c 0.10403,0.38943 0.19156,0.70806 0.19452,0.70806 0.003,0 0.0893,-0.31763 0.19179,-0.70585 l 0.18641,-0.70584 0.31977,-0.002 0.31978,-0.002 v 1.04892 1.04892 h -0.19909 -0.1991 l -0.002,-0.81205 -0.002,-0.81205 -0.19831,0.78328 c -0.10907,0.43081 -0.20186,0.79624 -0.2062,0.81206 l -0.008,0.0288 -0.20537,-3e-5 -0.20536,-3e-5 -0.20241,-0.80317 c -0.11133,-0.44174 -0.2058,-0.80914 -0.20994,-0.81645 -0.004,-0.007 -0.008,0.35056 -0.008,0.8032 l -2.7e-4,0.81648 h -0.19471 -0.19472 z"
     id="path3" /><path
     style="fill:#000000;stroke-width:0.203729"
     d="m 25.04053,15.878838 v -2.01614 h 0.39529 0.39529 v 0.82652 c 0,0.45458 0.0243,0.82484 0.0539,0.8228 0.0543,-0.004 0.13192,-0.0976 0.91066,-1.10103 l 0.42553,-0.54829 h 0.42761 0.42762 l -0.24621,0.30545 c -0.64316,0.79791 -1.20853,1.55463 -1.20853,1.61754 0,0.0383 0.0999,0.19536 0.22201,0.34903 0.12211,0.15367 0.30807,0.38973 0.41326,0.52458 0.10519,0.13485 0.30445,0.38127 0.4428,0.5476 0.46559,0.55974 0.49141,0.59644 0.44928,0.63857 -0.0231,0.0231 -0.22696,0.042 -0.453,0.042 -0.34632,0 -0.42795,-0.0255 -0.51887,-0.16171 -0.0593,-0.0889 -0.1932,-0.25874 -0.29747,-0.37733 -0.10428,-0.11858 -0.35861,-0.43265 -0.56519,-0.69792 -0.20658,-0.26527 -0.39882,-0.48358 -0.42722,-0.48513 -0.0284,-0.002 -0.0607,0.3772 -0.0719,0.84167 l -0.0202,0.84448 -0.37732,0.0217 -0.37732,0.0217 z m 4.20939,1.94475 c -0.0217,-0.0351 -0.0892,-0.30197 -0.14996,-0.59294 -0.0608,-0.29098 -0.15952,-0.73927 -0.21946,-0.99621 -0.21394,-0.9171 -0.24418,-1.04836 -0.35601,-1.54522 -0.20775,-0.92297 -0.23112,-0.82652 0.20027,-0.82652 h 0.3809 l 0.20316,0.98822 c 0.11174,0.54353 0.23203,1.082 0.26731,1.1966 0.0353,0.11461 0.0641,0.2871 0.0641,0.38332 0,0.10221 0.0352,0.16322 0.0846,0.14674 0.0465,-0.0155 0.20805,-0.51142 0.35895,-1.10202 0.4618,-1.80736 0.37495,-1.62384 0.75648,-1.59867 l 0.32954,0.0217 0.10248,0.39529 c 0.0564,0.21741 0.20871,0.81574 0.33854,1.32962 0.12983,0.51387 0.26243,0.93432 0.29466,0.93432 0.064,0 0.11952,-0.16907 0.2359,-0.71871 0.45623,-2.15486 0.38255,-1.97646 0.8162,-1.97646 0.34383,0 0.36226,0.009 0.31971,0.16172 -0.0435,0.15588 -0.3064,1.31392 -0.518,2.2819 -0.0562,0.25694 -0.16112,0.70973 -0.23322,1.0062 l -0.13109,0.53903 h -0.42241 -0.42241 l -0.16601,-0.57497 c -0.0913,-0.31623 -0.21768,-0.76902 -0.28083,-1.00619 -0.19742,-0.7414 -0.25078,-0.89839 -0.30535,-0.89839 -0.0291,0 -0.17709,0.49321 -0.32883,1.09603 -0.38659,1.53585 -0.32206,1.41946 -0.78694,1.41946 -0.21606,0 -0.4106,-0.0288 -0.43232,-0.0639 z m 4.2714,-0.0137 c 0,-0.0468 0.1262,-0.44722 0.28044,-0.88988 0.15424,-0.44265 0.45075,-1.31164 0.65891,-1.93109 l 0.37847,-1.12627 h 0.51583 0.51583 l 0.14925,0.48513 c 0.0821,0.26682 0.37817,1.14534 0.65797,1.95228 0.2798,0.80693 0.50873,1.49419 0.50873,1.52726 0,0.0331 -0.17562,0.0601 -0.39026,0.0601 h -0.39026 l -0.15952,-0.50542 -0.15951,-0.50542 -0.7559,0.0203 -0.75589,0.0203 -0.1555,0.46716 -0.1555,0.46716 -0.37154,0.0217 c -0.25041,0.0147 -0.37155,-0.006 -0.37155,-0.0633 z m 2.31307,-1.54077 c 0.0668,-0.0668 -0.42327,-1.54402 -0.51221,-1.54402 -0.0449,0 -0.50799,1.39379 -0.50741,1.52726 2.6e-4,0.0599 0.96072,0.0756 1.01962,0.0168 z m 1.9992,-0.39408 v -2.01239 h 0.35935 0.35936 v 1.68897 1.68897 h 0.89839 0.89838 v 0.32342 0.32342 h -1.25774 -1.25774 z m 3.21347,1.9677 c -0.0281,-0.0281 -0.0511,-0.93677 -0.0511,-2.0192 v -1.96806 l 0.39801,0.0216 0.39802,0.0216 3e-5,1.97645 2e-5,1.97645 -0.3469,0.0212 c -0.19079,0.0117 -0.36991,-0.002 -0.39804,-0.03 z m 2.58744,9e-5 c -0.0282,-0.0282 -0.0512,-0.80587 -0.0512,-1.72822 v -1.67699 h -0.57497 -0.57497 v -0.28749 -0.28748 h 1.54523 1.54523 v 0.28446 0.28446 l -0.557,0.021 -0.557,0.021 -0.0359,1.68897 -0.0359,1.68897 -0.3261,0.0213 c -0.17935,0.0117 -0.34915,-0.002 -0.37732,-0.0299 z m 3.44981,0 c -0.0282,-0.0282 -0.0512,-0.38743 -0.0512,-0.79834 v -0.74711 l -0.33409,-0.62443 c -0.18375,-0.34343 -0.35761,-0.65677 -0.38635,-0.6963 -0.0911,-0.12533 -0.57324,-1.02605 -0.57324,-1.07096 0,-0.0237 0.17517,-0.043 0.38926,-0.043 h 0.38926 l 0.44694,0.79135 c 0.3096,0.54817 0.47157,0.77063 0.5271,0.72393 0.0441,-0.0371 0.25804,-0.39233 0.47545,-0.78944 l 0.39529,-0.72202 0.40825,-0.002 0.40825,-0.002 -0.6598,1.16791 -0.6598,1.1679 -0.0359,0.82652 -0.0359,0.82652 -0.3261,0.0213 c -0.17935,0.0117 -0.34915,-0.002 -0.37732,-0.03 z m 3.97355,-1.96403 v -2.01615 h 1.25775 1.25774 v 0.28748 0.28749 H 52.7109 51.84845 v 0.60847 0.60847 l 0.76675,0.0204 0.76675,0.0204 v 0.28749 0.28748 l -0.76434,0.0204 -0.76435,0.0204 -0.0204,0.7702 -0.0204,0.77021 -0.37732,0.0217 -0.37733,0.0217 z m 4.16348,1.91125 c -0.39924,-0.12805 -0.62604,-0.30953 -0.80022,-0.64035 -0.14766,-0.28043 -0.16246,-0.42185 -0.18787,-1.79572 l -0.0276,-1.49133 h 0.40256 0.40255 v 1.35482 c 0,0.77665 0.0328,1.44894 0.0769,1.57535 0.16527,0.47408 1.02825,0.59696 1.42291,0.20261 l 0.18919,-0.18904 0.0233,-1.47187 0.0233,-1.47187 h 0.35406 0.35405 v 1.3925 c 0,0.76588 -0.0214,1.49969 -0.0476,1.63069 -0.0642,0.321 -0.55617,0.79801 -0.94033,0.91175 -0.36505,0.10808 -0.89463,0.10488 -1.24509,-0.008 z m 3.30887,0.0472 c -10e-4,-0.0317 -0.002,-0.93089 -0.002,-1.99818 l 5.3e-4,-1.94051 0.95394,-0.0205 c 1.45822,-0.0313 1.81313,0.17194 1.81529,1.0397 10e-4,0.39441 -0.0226,0.46914 -0.20999,0.66487 -0.1161,0.12128 -0.25355,0.22052 -0.30545,0.22052 -0.14358,0 -0.11339,0.13631 0.0815,0.3679 0.14624,0.17379 0.61474,1.43749 0.61474,1.65815 0,0.0362 -0.16873,0.0559 -0.37497,0.044 l -0.37497,-0.0217 -0.23651,-0.71871 c -0.26864,-0.81633 -0.40203,-0.96623 -0.86195,-0.96866 l -0.30317,-0.002 -0.0202,0.84448 -0.0202,0.84448 -0.37732,0.0217 c -0.20753,0.012 -0.37833,-0.004 -0.37956,-0.0359 z m 1.80259,-2.35938 c 0.1844,-0.0953 0.2119,-0.14923 0.21095,-0.41325 -5.3e-4,-0.16699 -0.0249,-0.3392 -0.0539,-0.38269 -0.10536,-0.15778 -0.3749,-0.24434 -0.7609,-0.24434 h -0.39411 l -0.0239,0.52107 c -0.0134,0.29366 0.008,0.5441 0.048,0.57386 0.12737,0.0936 0.75532,0.0583 0.97382,-0.0546 z m 1.93695,0.39371 v -2.01582 l 0.44486,0.0214 0.44487,0.0214 0.76075,1.24964 c 0.41841,0.6873 0.7923,1.23711 0.83085,1.22181 0.041,-0.0163 0.0754,-0.53517 0.0829,-1.24964 l 0.0128,-1.22181 0.36571,-0.0218 0.36571,-0.0217 -0.0191,1.99821 -0.0191,1.99822 -0.37417,0.0216 -0.37417,0.0216 -0.2442,-0.38097 c -0.1343,-0.20953 -0.51574,-0.82435 -0.84764,-1.36627 -0.33189,-0.54191 -0.62769,-0.98662 -0.65734,-0.98823 -0.0297,-0.002 -0.0539,0.61158 -0.0539,1.36263 v 1.36555 h -0.35936 -0.35935 z m 4.36018,1.96791 c -0.0263,-0.0264 -0.0479,-0.93193 -0.0479,-2.01239 v -1.96448 h 0.39529 0.39529 v 2.01239 2.01239 h -0.34737 c -0.19106,0 -0.36894,-0.0216 -0.39529,-0.0479 z m 2.52279,-1.65532 -0.0193,-1.71064 -0.55701,-0.021 -0.557,-0.021 v -0.28446 -0.28446 h 1.5093 1.50929 v 0.28446 0.28446 l -0.557,0.021 -0.557,0.021 -0.0138,1.68897 -0.0138,1.68896 -0.3622,0.0217 -0.36221,0.0217 z m 3.48641,1.60183 c -0.37528,-0.13653 -0.67083,-0.39534 -0.81564,-0.71425 -0.11823,-0.26038 -0.13567,-0.48357 -0.13705,-1.75374 l -0.002,-1.45539 h 0.35936 0.35935 l 5.3e-4,1.27571 c 5.3e-4,1.34415 0.055,1.71253 0.28457,1.92028 0.18401,0.16652 0.73007,0.22549 1.01091,0.10917 0.38821,-0.1608 0.42903,-0.3416 0.42903,-1.9001 v -1.40506 h 0.40255 0.40255 l -0.0276,1.49133 c -0.0254,1.37387 -0.0402,1.51529 -0.18786,1.79572 -0.25701,0.4881 -0.76173,0.74116 -1.45211,0.72807 -0.21742,-0.004 -0.49952,-0.0454 -0.6269,-0.0917 z m 3.33404,0.0535 c -0.0264,-0.0264 -0.0479,-0.93193 -0.0479,-2.01239 v -1.96448 h 1.0085 c 0.69447,0 1.08236,0.0309 1.24568,0.0991 0.72051,0.30105 0.82763,1.3198 0.18359,1.74601 l -0.2869,0.18986 0.18235,0.19034 c 0.15164,0.15826 0.68536,1.51757 0.68536,1.74548 0,0.0338 -0.16892,0.0517 -0.37537,0.0398 l -0.37538,-0.0217 -0.21955,-0.67071 c -0.27786,-0.84881 -0.44141,-1.033 -0.89128,-1.00379 l -0.33049,0.0215 -0.0202,0.84449 -0.0202,0.84448 H 76.3662 c -0.18981,0 -0.36666,-0.0216 -0.39301,-0.0479 z m 1.77156,-2.33459 c 0.21759,-0.11454 0.26242,-0.2004 0.26369,-0.50509 0.002,-0.40239 -0.25666,-0.57459 -0.82105,-0.54733 l -0.4356,0.021 -0.0215,0.49666 c -0.0151,0.34873 0.006,0.51431 0.0719,0.5559 0.13849,0.0878 0.76208,0.0738 0.9426,-0.0212 z m 1.91782,0.37173 v -2.01401 h 1.29368 1.29368 v 0.28748 0.28749 H 81.3485 80.44709 l 0.021,0.54952 0.021,0.54952 0.64858,-0.0145 c 0.8319,-0.0186 0.89665,0.007 0.89665,0.36053 v 0.27979 h -0.79058 -0.79059 v 0.53689 0.53688 l 0.91636,0.0201 0.91636,0.0201 v 0.28748 0.28749 l -1.31165,0.0196 -1.31165,0.0196 z m 5.2572,1.88685 c -0.0385,-0.072 -0.10103,-0.29182 -0.13893,-0.48859 -0.0663,-0.3442 -0.41623,-1.9007 -0.63082,-2.80596 -0.0568,-0.2397 -0.10331,-0.47418 -0.10331,-0.52106 0,-0.11942 0.71506,-0.11503 0.74785,0.005 0.0321,0.117 0.13607,0.59651 0.3741,1.72491 0.10631,0.504 0.21725,0.91636 0.24651,0.91636 0.0558,0 0.21779,-0.56753 0.54892,-1.92255 l 0.19758,-0.80855 h 0.34401 c 0.1892,0 0.344,0.0182 0.344,0.0405 0,0.0223 0.11707,0.48313 0.26016,1.02416 0.14309,0.54104 0.29671,1.12924 0.34139,1.30712 0.0447,0.17788 0.11211,0.32342 0.14986,0.32342 0.0377,0 0.14349,-0.35576 0.23499,-0.79058 0.0915,-0.43482 0.21884,-1.04123 0.28298,-1.34758 l 0.11663,-0.557 h 0.37518 0.37518 l -0.13484,0.557 c -0.0742,0.30635 -0.18467,0.79956 -0.24558,1.09603 -0.13162,0.64067 -0.4071,1.85211 -0.51073,2.24597 -0.0267,0.10144 -0.11337,0.12578 -0.44798,0.12578 h -0.41488 l -0.0831,-0.26952 c -0.0457,-0.14823 -0.20149,-0.70613 -0.34617,-1.23978 -0.14469,-0.53364 -0.27418,-0.98373 -0.28776,-1.0002 -0.0642,-0.0778 -0.13991,0.15044 -0.42075,1.26848 l -0.30271,1.20508 -0.40089,0.0214 c -0.32789,0.0175 -0.41363,-0.002 -0.4709,-0.10941 z m 5.73908,0.0258 c -0.73764,-0.2434 -1.08756,-0.67869 -1.22199,-1.52012 -0.0812,-0.50818 0.007,-1.13538 0.21575,-1.54185 0.31713,-0.61628 0.91226,-0.90351 1.75937,-0.84914 0.73946,0.0474 1.13609,0.29009 1.43745,0.87935 0.19752,0.38621 0.21599,0.48316 0.21241,1.1146 -0.003,0.56771 -0.0333,0.75223 -0.16778,1.03008 -0.37528,0.77523 -1.37354,1.17139 -2.23521,0.88708 z m 1.30132,-0.82123 c 0.23647,-0.26465 0.35077,-0.63429 0.35131,-1.13613 5.3e-4,-0.64246 -0.21802,-1.06194 -0.67175,-1.28829 -0.26618,-0.13279 -0.46536,-0.13383 -0.77592,-0.004 -0.47295,0.19761 -0.63619,0.54326 -0.63619,1.34711 0,0.97261 0.3559,1.38684 1.14405,1.33155 0.3268,-0.0229 0.4214,-0.0631 0.5885,-0.25016 z m 2.00251,0.8693 c -0.001,-0.0317 -0.002,-0.9309 -0.002,-1.99818 l 5.3e-4,-1.94052 0.95394,-0.0205 c 1.45821,-0.0313 1.81313,0.17194 1.81528,1.0397 10e-4,0.39441 -0.0226,0.46914 -0.20998,0.66487 -0.1161,0.12129 -0.25356,0.22052 -0.30545,0.22052 -0.14359,0 -0.1134,0.13631 0.0815,0.3679 0.14624,0.1738 0.61474,1.43749 0.61474,1.65815 0,0.0362 -0.16874,0.0559 -0.37497,0.044 l -0.37497,-0.0217 -0.23651,-0.71871 c -0.26865,-0.81634 -0.40203,-0.96624 -0.86195,-0.96866 l -0.30317,-0.002 -0.0202,0.84448 -0.0202,0.84449 -0.37733,0.0217 c -0.20752,0.012 -0.37833,-0.004 -0.37956,-0.0359 z m 1.80258,-2.35938 c 0.18441,-0.0954 0.21191,-0.14924 0.21095,-0.41326 -5.3e-4,-0.16699 -0.0249,-0.3392 -0.0539,-0.38269 -0.10536,-0.15778 -0.3749,-0.24434 -0.76089,-0.24434 h -0.39412 l -0.0239,0.52107 c -0.0134,0.29366 0.007,0.54411 0.048,0.57387 0.12737,0.0936 0.75532,0.0583 0.97382,-0.0546 z m 1.93695,0.39713 v -2.01239 h 0.35936 0.35936 v 1.68897 1.68897 h 0.89838 0.89839 v 0.32342 0.32342 h -1.25774 -1.25775 z m 3.21025,1.96448 c -0.0263,-0.0264 -0.0479,-0.93193 -0.0479,-2.01239 v -1.96448 h 0.962 c 1.197,0 1.57603,0.10399 1.9812,0.54355 0.8219,0.89165 0.61123,2.73414 -0.36603,3.20133 -0.13275,0.0635 -0.35686,0.1524 -0.49801,0.19764 -0.27209,0.0872 -1.95001,0.11558 -2.03125,0.0343 z m 1.81016,-0.64353 c 0.31233,-0.0625 0.63529,-0.39737 0.73406,-0.76122 0.13083,-0.48193 0.0418,-1.23976 -0.17981,-1.53028 -0.2231,-0.2925 -0.74814,-0.48441 -1.23949,-0.45304 l -0.34632,0.0221 -0.0197,1.29126 c -0.0109,0.7102 -0.004,1.33278 0.0157,1.38352 0.0381,0.0992 0.63936,0.12689 1.03553,0.0477 z"
     id="path2" /></svg>
